# xmcd
#
# Track frame offsets: 
#        150
#        11632
#        23356
#        34981
#        50731
#        61253
#        75677
#        94638
#        109867
#        123815
#        134502
#        148756
#        164579
#
# Disc length: 2413 seconds
#
# Revision: 0
# Processed by: cddbd v1.5.1PL0 Copyright (c) Steve Scherf et al.
# Submitted via: ExactAudioCopy v0.95a5
#
DISCID=ac096b0d
DTITLE=LeRoy Mack - Smiles and Tears
DYEAR=2003
DGENRE=Bluegrass
TTITLE0=A Matter of Policy
TTITLE1=East Bound Train (Going for a pardon)
TTITLE2=I Just Don't Look Good Naked Anymore
TTITLE3=No School Bus in Heaven
TTITLE4=Alabama Jubilee
TTITLE5=Praying Mantis Love Affair
TTITLE6=This One Belongs To Me
TTITLE7=Sentimental Journey
TTITLE8=Dream of a Miner's Child
TTITLE9=Putting on the Dog
TTITLE10=I'm Dying a Sinners Death
TTITLE11=The Little Girl and the Dreadful Snake
TTITLE12=Jan's Song
EXTD=
EXTT0=
EXTT1=
EXTT2=
EXTT3=
EXTT4=
EXTT5=
EXTT6=
EXTT7=
EXTT8=
EXTT9=
EXTT10=
EXTT11=
EXTT12=
PLAYORDER=
